<?xml version="1.0" standalone="no"?>
<!DOCTYPE svg PUBLIC "-//W3C//DTD SVG 20010904//EN"
 "http://www.w3.org/TR/2001/REC-SVG-20010904/DTD/svg10.dtd">
<svg version="1.0" xmlns="http://www.w3.org/2000/svg"
 width="448.000000pt" height="297.000000pt" viewBox="0 0 448.000000 297.000000"
 preserveAspectRatio="xMidYMid meet">

<g transform="translate(0.000000,297.000000) scale(0.100000,-0.100000)"
fill="black" stroke="none">
<path d="M1694 2884 c-18 -14 -18 -15 4 -4 12 6 22 13 22 15 0 8 -5 6 -26 -11z"/>
<path d="M1624 2844 c-18 -14 -18 -15 4 -4 12 6 22 13 22 15 0 8 -5 6 -26 -11z"/>
<path d="M1568 2814 c-38 -20 -36 -28 2 -9 17 9 30 18 30 20 0 7 -1 6 -32 -11z"/>
<path d="M1504 2774 c-18 -14 -18 -15 4 -4 12 6 22 13 22 15 0 8 -5 6 -26 -11z"/>
<path d="M1448 2744 c-38 -20 -36 -28 2 -9 17 9 30 18 30 20 0 7 -1 6 -32 -11z"/>
<path d="M1378 2704 c-38 -20 -36 -28 2 -9 17 9 30 18 30 20 0 7 -1 6 -32 -11z"/>
<path d="M1228 2617 c-59 -35 -111 -67 -115 -72 -10 -11 -8 -9 120 64 90 53
118 72 105 71 -2 0 -51 -29 -110 -63z"/>
<path d="M3093 2643 c-23 -10 -62 -32 -87 -50 -38 -27 -48 -41 -62 -89 -40
-140 27 -379 237 -841 l32 -72 47 24 c81 41 222 209 275 328 33 75 48 160 40
224 -7 55 -32 153 -40 153 -2 0 -15 -4 -29 -10 -23 -8 -25 -12 -16 -35 15 -40
28 -133 20 -145 -4 -7 -15 19 -24 57 -21 82 -65 177 -110 236 l-33 43 39 17
c33 15 37 20 28 36 -5 11 -29 35 -52 54 -96 77 -188 102 -265 70z m147 -262
c87 -70 127 -204 80 -263 -35 -46 -93 -33 -157 34 -73 76 -96 196 -47 245 31
31 72 26 124 -16z"/>
<path d="M1010 2490 c-47 -27 -81 -50 -77 -50 10 0 167 90 167 96 0 6 -1 6
-90 -46z"/>
<path d="M1789 2130 l-24 -21 35 7 c46 8 55 15 39 25 -20 12 -24 11 -50 -11z"/>
<path d="M1715 2090 c-3 -5 -3 -15 1 -21 6 -11 23 6 24 24 0 10 -18 9 -25 -3z"/>
<path d="M3009 1651 c-13 -11 -21 -22 -18 -25 11 -11 37 5 42 25 6 24 5 24
-24 0z"/>
<path d="M2942 1614 c-12 -8 -22 -19 -22 -25 0 -13 22 -10 44 6 29 22 7 40
-22 19z"/>
<path d="M2864 1566 c-10 -8 -16 -18 -12 -22 10 -9 58 12 58 26 0 14 -23 12
-46 -4z"/>
<path d="M2712 1548 c5 -15 58 -24 58 -10 0 11 -24 22 -47 22 -8 0 -13 -6 -11
-12z"/>
<path d="M2643 1543 c-7 -2 -13 -9 -13 -14 0 -15 53 -6 58 9 4 12 -21 15 -45
5z"/>
<path d="M2780 1523 c0 -10 9 -13 27 -11 38 4 42 27 4 26 -20 -1 -31 -6 -31
-15z"/>
<path d="M2574 1516 c-10 -8 -16 -17 -13 -21 11 -10 59 6 59 21 0 18 -21 18
-46 0z"/>
<path d="M2503 1493 c-12 -4 -19 -33 -9 -33 16 0 56 21 56 30 0 10 -25 12 -47
3z"/>
<path d="M2433 1470 c-25 -10 -31 -30 -9 -30 25 0 46 12 46 26 0 16 -6 16 -37
4z"/>
<path d="M2358 1443 c-19 -5 -24 -18 -10 -26 11 -7 52 11 52 23 0 10 -12 11
-42 3z"/>
<path d="M2275 1409 c-4 -6 -5 -13 -1 -16 8 -8 56 6 56 17 0 13 -47 13 -55 -1z"/>
<path d="M2211 1389 c-16 -6 -21 -13 -14 -20 13 -13 67 7 58 21 -7 12 -12 12
-44 -1z"/>
<path d="M2130 1360 c-8 -5 -11 -12 -8 -16 10 -9 58 4 58 16 0 13 -30 13 -50
0z"/>
<path d="M2070 1325 c-16 -9 -19 -14 -9 -15 8 0 24 7 35 15 24 18 7 19 -26 0z"/>
<path d="M3588 577 c-125 -74 -231 -137 -235 -142 -11 -11 -17 -15 240 134
193 113 240 142 225 141 -2 0 -105 -60 -230 -133z"/>
<path d="M3314 414 c-18 -14 -18 -15 4 -4 12 6 22 13 22 15 0 8 -5 6 -26 -11z"/>
<path d="M3233 369 c-29 -17 -53 -33 -53 -36 0 -5 89 44 105 58 16 16 1 9 -52
-22z"/>
<path d="M3144 314 c-18 -14 -18 -15 4 -4 12 6 22 13 22 15 0 8 -5 6 -26 -11z"/>
<path d="M3088 284 c-38 -20 -36 -28 2 -9 17 9 30 18 30 20 0 7 -1 6 -32 -11z"/>
<path d="M3024 244 c-18 -14 -18 -15 4 -4 12 6 22 13 22 15 0 8 -5 6 -26 -11z"/>
<path d="M2954 204 c-18 -14 -18 -15 4 -4 12 6 22 13 22 15 0 8 -5 6 -26 -11z"/>
</g>
</svg>
