<?xml version="1.0" standalone="no"?>
<!DOCTYPE svg PUBLIC "-//W3C//DTD SVG 20010904//EN"
 "http://www.w3.org/TR/2001/REC-SVG-20010904/DTD/svg10.dtd">
<svg version="1.0" xmlns="http://www.w3.org/2000/svg"
 width="324.000000pt" height="76.000000pt" viewBox="0 0 324.000000 76.000000"
 preserveAspectRatio="xMidYMid meet">

<g transform="translate(0.000000,76.000000) scale(0.100000,-0.100000)"
fill="#F26363" stroke="none">
<path d="M2998 724 c-40 -21 -72 -83 -111 -214 -27 -88 -32 -116 -22 -118 20
-5 209 45 266 69 61 27 89 68 89 132 0 62 -25 111 -67 131 -42 20 -119 20
-155 0z m135 -72 c24 -21 22 -77 -3 -102 -30 -30 -83 -27 -109 6 -25 32 -26
52 -5 82 30 43 78 48 117 14z"/>
<path d="M2584 530 c-44 -14 -126 -105 -160 -177 -24 -51 -34 -63 -59 -67 -37
-7 -95 -42 -95 -57 0 -8 17 -10 51 -7 51 5 51 5 44 -21 -13 -55 -18 -188 -6
-195 17 -11 79 13 85 32 3 9 8 54 12 98 3 45 9 87 13 92 4 7 32 9 80 5 68 -6
72 -7 67 -27 -22 -79 -28 -133 -17 -158 21 -55 110 -46 173 18 l36 35 7 -29
c14 -68 81 -80 150 -28 36 28 70 90 61 113 -5 12 -17 5 -56 -31 -76 -71 -94
-52 -65 69 26 105 17 155 -26 155 -21 0 -55 -68 -64 -130 -5 -34 -17 -55 -48
-88 -44 -45 -72 -53 -82 -23 -3 10 11 62 31 117 29 78 37 115 38 171 1 68 -1
74 -29 102 -34 34 -90 46 -141 31z m60 -93 c19 -14 23 -53 12 -104 l-8 -33
-84 0 -84 0 10 25 c21 56 43 87 73 105 37 23 57 25 81 7z"/>
<path d="M94 510 c-46 -23 -88 -63 -83 -79 2 -5 28 1 59 14 77 34 159 34 197
1 22 -19 28 -32 27 -65 -2 -59 -26 -91 -67 -89 -59 2 -79 -32 -33 -54 25 -11
26 -14 42 -131 8 -56 36 -97 69 -97 35 0 77 18 107 47 26 25 26 25 37 4 7 -11
26 -28 43 -37 39 -20 138 -15 187 10 31 17 34 17 53 -1 16 -14 37 -18 98 -18
69 0 81 3 104 24 33 31 36 89 6 116 -26 24 -25 28 10 63 69 69 9 149 -91 122
-51 -14 -84 -53 -84 -99 0 -32 9 -47 53 -95 59 -65 66 -86 25 -78 -36 6 -62
29 -80 70 -17 40 -39 41 -61 2 -32 -56 -126 -75 -167 -34 -26 26 -13 47 42 69
70 27 102 54 109 91 9 45 -22 74 -78 74 -74 0 -141 -59 -168 -145 -15 -50 -66
-105 -97 -105 -19 0 -25 10 -43 66 -24 78 -25 94 -6 94 23 0 86 78 88 108 4
88 -13 125 -75 153 -59 26 -168 26 -223 -1z m510 -226 c9 -3 16 -12 16 -20 0
-13 -59 -64 -75 -64 -11 0 5 53 22 73 18 20 16 19 37 11z m312 -8 c6 -17 -12
-56 -26 -56 -14 0 -43 48 -35 60 9 15 55 12 61 -4z"/>
<path d="M1564 511 c-74 -34 -133 -141 -155 -284 -12 -72 -27 -97 -59 -97 -14
0 -16 9 -12 58 5 68 -9 86 -65 86 -52 0 -87 -43 -80 -97 3 -21 15 -49 26 -61
27 -28 19 -36 -35 -36 -57 0 -79 29 -71 96 8 73 70 124 154 124 l38 1 -24 19
c-31 27 -118 27 -169 1 -118 -61 -137 -242 -31 -297 48 -25 135 -16 180 19 25
19 48 27 75 27 22 0 46 6 53 13 10 10 17 6 33 -17 57 -77 176 -71 245 13 l21
26 11 -28 c6 -16 11 -32 11 -36 0 -18 31 -33 54 -27 13 3 44 27 69 52 l45 46
31 -23 c23 -17 38 -20 65 -16 29 5 38 2 46 -14 24 -45 110 -61 195 -38 55 16
115 77 115 119 l0 32 -39 -35 c-52 -47 -109 -64 -150 -47 -30 12 -48 41 -37
59 4 5 28 17 54 25 62 21 101 54 108 92 9 45 -22 74 -78 74 -73 0 -141 -58
-168 -145 -17 -54 -27 -65 -61 -65 -40 0 -44 27 -14 91 29 63 31 82 9 103 -21
22 -60 20 -84 -4 -16 -16 -20 -33 -20 -84 0 -102 -51 -174 -86 -120 -14 20
-15 37 -9 92 13 105 12 124 -8 136 -13 8 -24 7 -45 -4 -26 -15 -27 -19 -27
-99 0 -83 0 -83 -37 -117 -30 -27 -46 -34 -78 -34 -38 0 -42 3 -56 36 -9 20
-13 46 -10 58 3 12 42 61 86 110 111 124 132 174 90 216 -25 25 -53 25 -106 1z
m56 -68 c0 -14 -106 -163 -116 -163 -7 0 30 108 48 137 30 51 68 65 68 26z
m554 -159 c9 -3 16 -12 16 -20 0 -13 -59 -64 -75 -64 -11 0 5 53 22 73 18 20
16 19 37 11z m-876 -98 c-2 -15 -7 -28 -13 -29 -12 -2 -19 38 -10 60 9 25 27
1 23 -31z"/>
<path d="M118 403 c-63 -73 -129 -342 -95 -387 13 -18 18 -18 46 -6 43 17 51
36 51 122 0 40 9 106 20 147 32 120 22 174 -22 124z"/>
</g>
</svg>
